<svg id="Capa_1" enable-background="new 0 0 513.52 513.52" height="512" viewBox="0 0 513.52 513.52" width="512" xmlns="http://www.w3.org/2000/svg"><g><g><path d="m355.51 241.078h86.581v39.2h-86.581z" fill="#ffe5c2"/><path d="m67.81 241.078h90.2v39.202h-90.2z" fill="#ffe5c2"/><g><g id="XMLID_400_"><path d="m84.632 280.282 73.378-.003v-39.2h-82.96v29.621c0 5.292 4.29 9.582 9.582 9.582z" fill="#fed2a4"/><path d="m213.17 206.938-22.319-10.211h-66.126l-21.865 10.211c-5.06 6.65-7.81 14.78-7.81 23.14v224.74c0 7.37 5.98 13.35 13.35 13.35h99.23c7.37 0 13.34-5.98 13.34-13.35v-224.74c0-8.36-2.74-16.49-7.8-23.14z" fill="#dcf5f8"/><path d="m209.889 260.279-72.035.002c-8.215 0-14.875-6.659-14.875-14.874v-17.884c0-8.569 2.75-16.902 7.81-23.718l5.251-7.076h-11.315l-21.865 10.211c-5.06 6.65-7.81 14.78-7.81 23.14v224.74c0 7.373 5.977 13.35 13.35 13.35h19.154c-1.247-1.118-2.29-3.43-3.065-5.65-.918-2.633 1.073-5.38 3.862-5.38h81.539c3.794 0 7.482-.451 11.028-1.278.027-.345.053-.69.053-1.042v-193.251c-3.563-.835-7.269-1.29-11.082-1.29z" fill="#a6e7f0"/><path d="m209.89 280.278-142.08.004v-39.205h-5.77c-6.86 0-13.21 3.66-16.66 9.59l-17.2 29.61h-16.191c-2.479 0-4.489 2.01-4.489 4.489v125.972c0 2.479 2.01 4.489 4.489 4.489h26.791l15.49 13.49c6.24 5.43 14.23 8.42 22.5 8.42h133.12c15.779 0 28.57-12.791 28.57-28.57v-99.71c0-15.779-12.8-28.579-28.57-28.579z" fill="#ffe5c2"/></g><g id="XMLID_404_"><g><path d="m191.09 92.398h-66.15c-4.38 0-7.39 4.39-5.81 8.47l6.28 16.27v6.36l14.317 14.49h43.1l7.793-14.49v-6.36l6.28-16.27c1.58-4.08-1.43-8.47-5.81-8.47z" fill="#dcf5f8"/><path d="m125.41 123.498 14.317 14.49h13.613v-24.223c0-1.326-.239-2.64-.707-3.881l-5.574-14.8c-.339-.897-.456-1.807-.404-2.686h-21.715c-4.38 0-7.39 4.39-5.81 8.47l6.28 16.27z" fill="#a6e7f0"/><path d="m190.62 177.288 22.55 29.65h-110.31l22.55-29.65v-53.79h65.21z" fill="#f9f7f8"/></g></g><path d="m130.79 203.804 19.312-26.027c2.103-2.834 3.238-6.269 3.238-9.798v-44.481h-27.93v53.79l-22.55 29.65h25.838c.647-1.074 1.341-2.123 2.092-3.134z" fill="#efedef"/><path d="m438.47 241.078h-82.96v39.2h76.072c3.804 0 6.888-3.084 6.888-6.888z" fill="#fed2a4"/><path d="m410.67 206.938-22.319-10.211h-66.126l-21.865 10.211c-5.06 6.65-7.81 14.78-7.81 23.14v224.74c0 7.37 5.98 13.35 13.35 13.35h99.23c7.37 0 13.34-5.98 13.34-13.35v-224.74c0-8.36-2.74-16.49-7.8-23.14z" fill="#dcf5f8"/><g id="XMLID_409_"><g><path d="m388.59 92.398h-66.15c-4.38 0-7.39 4.39-5.81 8.47l6.28 16.27v6.36l14.317 14.49h43.1l7.793-14.49v-6.36l6.28-16.27c1.58-4.08-1.43-8.47-5.81-8.47z" fill="#dcf5f8"/><path d="m322.91 123.498 14.317 14.49h13.55v-26.358c0-1.81-.327-3.605-.966-5.298l-5.255-13.933h-22.116c-4.38 0-7.39 4.39-5.81 8.47l6.28 16.27z" fill="#a6e7f0"/><path d="m337.121 260.279c-9.225 0-16.704-7.478-16.704-16.704v-19.09c0-8.556 2.75-16.877 7.81-23.684l3.027-4.074h-9.03l-21.865 10.211c-5.06 6.65-7.81 14.78-7.81 23.14v224.74c0 7.373 5.977 13.35 13.35 13.35h27.868c-5.237 0-9.768-3.091-11.954-7.587-.774-1.592.445-3.443 2.216-3.443h94.226c.132-.755.215-1.527.215-2.32v-194.54z" fill="#a6e7f0"/><path d="m388.12 177.288 22.55 29.65h-110.31l22.55-29.65v-53.79h65.21z" fill="#f9f7f8"/></g></g><path d="m328.227 200.802 19.096-25.698c2.243-3.019 3.454-6.679 3.454-10.44v-41.166h-27.867v53.79l-22.55 29.65h24.134c1.054-2.147 2.297-4.204 3.733-6.136z" fill="#efedef"/><g id="XMLID_407_"><path d="m498.251 280.278h-12.911l-17.2-29.61c-3.45-5.93-9.8-9.59-16.66-9.59h-9.389v39.2h-138.451c-15.784 0-28.58 12.795-28.58 28.58v99.71c0 15.78 12.8 28.57 28.57 28.57h133.12c8.27 0 16.26-2.99 22.5-8.42l15.49-13.49h23.511c4.291 0 7.769-3.478 7.769-7.769v-119.412c0-4.291-3.478-7.769-7.769-7.769z" fill="#ffe5c2"/></g></g></g><g><path d="m228.475 277.954v-47.872c0-9.94-3.314-19.772-9.332-27.685l-21.024-27.643v-56.223l5.779-14.958c1.632-4.225 1.077-8.976-1.484-12.711-2.561-3.734-6.793-5.964-11.321-5.964h-66.157c-4.529 0-8.761 2.229-11.322 5.965-2.561 3.734-3.115 8.486-1.483 12.71l5.779 14.958v56.223l-21.024 27.643c-6.018 7.912-9.332 17.744-9.332 27.685v3.5h-25.51c-9.502 0-18.371 5.104-23.145 13.32l-15.037 25.88h-16.362c-4.142 0-7.5 3.357-7.5 7.5s3.358 7.5 7.5 7.5h20.679c2.672 0 5.143-1.422 6.485-3.732l17.205-29.612c2.099-3.611 5.998-5.855 10.175-5.855h25.511v24.2h-12.249c-4.142 0-7.5 3.357-7.5 7.5s3.358 7.5 7.5 7.5h134.58c11.357 0 20.619 9.038 21.032 20.296h-13.602c-4.142 0-7.5 3.357-7.5 7.5s3.358 7.5 7.5 7.5h13.642v24.226h-13.642c-4.142 0-7.5 3.357-7.5 7.5s3.358 7.5 7.5 7.5h13.642v24.226h-13.642c-4.142 0-7.5 3.357-7.5 7.5s3.358 7.5 7.5 7.5h13.642v7.04c0 11.619-9.453 21.071-21.071 21.071h-79.287c-4.142 0-7.5 3.357-7.5 7.5s3.358 7.5 7.5 7.5h79.287c1.211 0 2.408-.062 3.589-.18v10.358c0 3.224-2.622 5.846-5.845 5.846h-99.231c-3.223 0-5.846-2.622-5.846-5.846v-11.292c2.146-1.319 3.582-3.682 3.582-6.386 0-4.143-3.358-7.5-7.5-7.5h-21.862c-6.464 0-12.709-2.338-17.583-6.583l-15.486-13.489c-1.366-1.188-3.115-1.844-4.926-1.844h-31.279c-4.142 0-7.5 3.357-7.5 7.5s3.358 7.5 7.5 7.5h28.471l13.368 11.643c7.605 6.624 17.349 10.272 27.435 10.272h10.78v10.179c0 11.494 9.352 20.846 20.846 20.846h99.229c11.494 0 20.845-9.352 20.845-20.846v-15.351c10.467-6.321 17.482-17.806 17.482-30.899v-99.716c.001-13.094-7.014-24.579-17.481-30.9zm-39.238-178.054-5.614 14.531c-.195.506-.328 1.031-.41 1.564h-50.397c-.082-.534-.214-1.059-.41-1.564l-5.614-14.531zm-57.857 81.924c.993-1.305 1.53-2.9 1.53-4.54v-46.288h50.208v46.288c0 1.64.538 3.235 1.53 4.54l13.397 17.614h-80.063zm-28.825 90.959v-42.7c0-5.494 1.528-10.926 4.313-15.645h102.295c2.785 4.718 4.313 10.15 4.313 15.645v42.88c-1.181-.117-2.378-.179-3.589-.179h-107.332z"/><path d="m506.02 407.726h-31.28c-1.811 0-3.56.655-4.926 1.844l-15.487 13.488c-4.874 4.245-11.118 6.583-17.583 6.583h-133.11c-11.619 0-21.071-9.452-21.071-21.071v-7.04h13.642c4.142 0 7.5-3.357 7.5-7.5s-3.358-7.5-7.5-7.5h-13.642v-24.226h13.642c4.142 0 7.5-3.357 7.5-7.5s-3.358-7.5-7.5-7.5h-13.642v-24.226h13.642c4.142 0 7.5-3.357 7.5-7.5s-3.358-7.5-7.5-7.5h-13.602c.413-11.258 9.675-20.296 21.032-20.296h19.265c4.142 0 7.5-3.357 7.5-7.5s-3.358-7.5-7.5-7.5h-19.266c-1.211 0-2.408.062-3.589.179v-42.88c0-5.495 1.528-10.927 4.313-15.645h102.294c2.785 4.717 4.313 10.15 4.313 15.645v42.7h-56.102c-4.142 0-7.5 3.357-7.5 7.5s3.358 7.5 7.5 7.5h83.351c4.142 0 7.5-3.357 7.5-7.5s-3.358-7.5-7.5-7.5h-12.249v-24.2h25.511c4.177 0 8.076 2.244 10.175 5.855l17.205 29.612c1.342 2.311 3.813 3.732 6.485 3.732h20.679c4.142 0 7.5-3.357 7.5-7.5s-3.358-7.5-7.5-7.5h-16.363l-15.037-25.88c-4.774-8.217-13.642-13.32-23.145-13.32h-25.511v-3.5c0-9.941-3.314-19.773-9.332-27.684l-21.024-27.644v-6.607c0-4.143-3.358-7.5-7.5-7.5s-7.5 3.357-7.5 7.5v9.136c0 1.64.538 3.235 1.53 4.54l13.397 17.614h-80.062l13.396-17.614c.993-1.306 1.53-2.9 1.53-4.54v-46.288h50.208v5.19c0 4.143 3.358 7.5 7.5 7.5s7.5-3.357 7.5-7.5v-17.653l5.779-14.958c1.632-4.224 1.078-8.976-1.482-12.71-2.561-3.735-6.793-5.965-11.322-5.965h-66.157c-4.528 0-8.761 2.229-11.321 5.964-2.561 3.735-3.116 8.486-1.484 12.711l5.779 14.958v56.223l-21.023 27.643c-6.018 7.911-9.332 17.743-9.332 27.685v47.872c-10.467 6.321-17.482 17.806-17.482 30.9v99.716c0 13.094 7.015 24.579 17.482 30.899v15.351c0 11.494 9.351 20.846 20.845 20.846h99.229c11.494 0 20.846-9.352 20.846-20.846v-10.179h10.78c10.086 0 19.83-3.648 27.435-10.271l13.369-11.644h28.471c4.142 0 7.5-3.357 7.5-7.5s-3.357-7.499-7.499-7.499zm-119.293-307.826-5.614 14.531c-.195.506-.328 1.031-.41 1.564h-50.397c-.082-.534-.214-1.059-.41-1.564l-5.614-14.531zm24.238 354.92c0 3.224-2.623 5.846-5.846 5.846h-99.229c-3.223 0-5.845-2.622-5.845-5.846v-10.358c1.181.118 2.378.18 3.589.18h107.331z"/><path d="m257.076 37.855c-.047-.001-.095-.001-.143-.001-4.077 0-7.419 3.267-7.496 7.36l-.354 18.95c-.078 4.142 3.217 7.562 7.359 7.639.047.001.095.001.143.001 4.077 0 7.419-3.267 7.496-7.36l.354-18.95c.078-4.142-3.217-7.562-7.359-7.639z"/><path d="m282.891 79.201c1.263.821 2.681 1.214 4.083 1.214 2.453 0 4.856-1.202 6.293-3.411l10.336-15.888c2.259-3.472 1.275-8.118-2.197-10.377-3.471-2.258-8.118-1.274-10.376 2.197l-10.336 15.888c-2.258 3.471-1.275 8.118 2.197 10.377z"/><path d="m220.605 77.003c1.438 2.21 3.841 3.411 6.293 3.411 1.402 0 2.82-.393 4.083-1.214 3.472-2.259 4.456-6.905 2.197-10.377l-10.336-15.888c-2.26-3.473-6.905-4.455-10.376-2.197-3.472 2.259-4.456 6.905-2.197 10.377z"/></g></g></svg>