<svg id="Capa_1" enable-background="new 0 0 512.55 512.55" height="512" viewBox="0 0 512.55 512.55" width="512" xmlns="http://www.w3.org/2000/svg"><g><g><path d="m413.006 141.204 25.736-30.724 61.212-58.795c6.553-6.294 6.821-16.648.599-23.126l-10.817-11.262c-6.222-6.478-16.578-6.627-23.131-.333l-61.212 58.796-31.748 24.488-44.638 25.407 59.51 52.233z" fill="#fbc56d"/><g><circle cx="232.415" cy="275.283" fill="#a6e7f0" r="224.915"/><ellipse cx="232.415" cy="275.283" fill="#b5adb6" rx="193.891" ry="193.939" transform="matrix(.707 -.707 .707 .707 -126.582 244.971)"/><g><g id="XMLID_58_"><g><path d="m193.586 429.419c-49.896 0-95.226-29.498-115.48-75.148-11.502-25.917-13.944-55.314-6.877-82.776 7.068-27.463 23.401-52.027 45.988-69.167l8.933-6.785c1.914-1.454 3.374-3.407 4.226-5.653l17.134-45.323c4.467-11.802 11.854-22.39 21.365-30.627 9.524-8.249 21.054-14.05 33.339-16.776 5.415-1.205 10.979-1.817 16.527-1.817 22.964 0 44.459 10.206 58.975 28l35.706 43.745c8.025 9.843 17.376 18.534 27.797 25.84l25.337 17.759c26.666 18.683 41.962 48.067 41.962 80.618 0 34.412-17.465 65.745-46.72 83.815-13.936 8.618-28.733 16.435-43.976 23.231l-1.28.571-97.793 28.065-4.945.8c-6.693 1.081-13.491 1.628-20.218 1.628z" fill="#a79ba7"/><path d="m355.076 227.069c22.38 15.68 33.44 39.98 33.44 64.24 0 25.79-12.51 51.53-37.23 66.8-13.39 8.28-27.3 15.6-41.61 21.98l-95.3 27.35-3.77.61c-5.7.92-11.39 1.37-17.02 1.37-41.51 0-79.94-24.36-97.2-63.26-20.02-45.11-6.39-98.07 32.92-127.9l8.94-6.79c4.9-3.72 8.65-8.74 10.83-14.49l17.14-45.34c3.35-8.85 8.81-16.57 15.75-22.58s15.34-10.32 24.58-12.37c20.72-4.61 42.26 2.86 55.67 19.3l35.71 43.75c9.19 11.27 19.9 21.22 31.81 29.57z" fill="#f9f7f8"/></g></g></g><g id="XMLID_2_"><g><path d="m279.676 328.739v70.11c0 4.98-2.02 9.49-5.29 12.76-3.26 3.26-7.77 5.28-12.75 5.28-9.97 0-18.04-8.08-18.04-18.04v-45.16c0-2.49-2.16-4.42-4.64-4.16-2.15.22-4.33.34-6.54.34-36.01 0-65.01-30.02-63.34-66.4 1.5-32.48 27.86-58.85 60.34-60.34 36.38-1.67 66.41 27.33 66.41 63.34 0 16.23-6.11 31.04-16.15 42.25z" fill="#fef056"/></g></g></g></g><g><path d="m42.893 317.038c-4.008 1.048-6.407 5.146-5.359 9.153 11.173 42.744 36.702 81.271 71.886 108.486 35.58 27.523 78.031 42.022 122.937 42.022.955 0 1.911-.007 2.867-.02 52.55-.721 102.085-21.712 139.48-59.108s58.386-86.931 59.105-139.481c.751-54.79-20.217-106.344-59.039-145.167-38.822-38.822-90.367-59.769-145.166-59.037-52.55.721-102.085 21.712-139.48 59.108-37.396 37.396-58.386 86.931-59.105 139.481-.095 6.904.166 13.891.776 20.767.367 4.126 4.019 7.175 8.134 6.808 4.126-.366 7.174-4.008 6.808-8.134-.565-6.369-.808-12.84-.72-19.235.666-48.621 20.098-94.462 54.714-129.08 34.617-34.618 80.458-54.049 129.079-54.716 50.694-.691 98.42 18.711 134.354 54.645 35.935 35.934 55.342 83.648 54.647 134.355-.666 48.621-20.098 94.462-54.714 129.08-34.617 34.617-80.458 54.049-129.079 54.716-.889.012-1.768.018-2.653.018-41.556 0-80.846-13.418-113.771-38.886-32.575-25.198-56.21-60.86-66.551-100.416-1.045-4.007-5.144-6.408-9.15-5.359z"/><path d="m505.962 23.364-10.816-11.262c-9.078-9.45-24.212-9.694-33.735-.546l-14.525 13.951c-2.987 2.869-3.083 7.617-.214 10.604 2.868 2.987 7.617 3.083 10.604.214l14.525-13.951c3.561-3.419 9.181-3.365 12.526.119l10.816 11.262c1.61 1.676 2.464 3.893 2.403 6.242-.062 2.381-1.051 4.611-2.787 6.278l-61.213 58.795c-.195.188-.38.386-.554.593l-19.755 23.583c-5.14-6.34-10.629-12.456-16.48-18.307-3.62-3.62-7.348-7.092-11.159-10.442l24.375-18.801c.214-.165.419-.342.614-.529l23.611-22.678c2.987-2.869 3.083-7.617.214-10.604s-7.616-3.083-10.604-.214l-23.318 22.398-26.776 20.653c-40.364-31.034-89.536-47.854-141.299-47.854-41.195 0-81.683 10.934-117.084 31.62-3.576 2.09-4.781 6.683-2.691 10.259 2.09 3.577 6.685 4.78 10.26 2.692 33.107-19.345 70.977-29.571 109.516-29.571 58.074 0 112.672 22.615 153.736 63.68 41.063 41.064 63.679 95.662 63.679 153.736s-22.615 112.671-63.679 153.735-95.662 63.68-153.736 63.68c-58.073 0-112.671-22.615-153.735-63.68-41.066-41.064-63.681-95.662-63.681-153.736 0-66.737 30.024-128.841 82.373-170.389 3.245-2.575 3.787-7.292 1.213-10.537-2.577-3.245-7.293-3.786-10.537-1.212-55.956 44.41-88.049 110.797-88.049 182.138 0 62.08 24.176 120.445 68.073 164.342s102.262 68.073 164.342 68.073 120.445-24.175 164.343-68.073 68.072-102.262 68.072-164.342c0-48.588-14.811-94.898-42.293-133.779l21.693-25.897 60.92-58.513c4.603-4.421 7.228-10.355 7.392-16.709.165-6.386-2.172-12.431-6.58-17.021z"/><path d="m312.732 386.944c14.712-6.563 29.011-14.118 42.499-22.453 24.678-15.25 39.911-41.667 40.75-70.664.838-28.998-12.845-56.25-36.601-72.9l-25.344-17.764c-11.346-7.952-21.541-17.428-30.304-28.164l-35.703-43.749c-15.303-18.75-39.486-27.136-63.109-21.886-21.016 4.67-38.108 19.481-45.722 39.619l-17.143 45.345c-1.678 4.438-4.562 8.299-8.34 11.167l-8.939 6.786c-20.354 15.449-35.071 37.585-41.441 62.331-6.371 24.746-4.172 51.237 6.191 74.594 18.466 41.615 59.673 67.711 104.104 67.71 6.013 0 12.087-.478 18.17-1.46l3.771-.609c4.089-.661 6.868-4.511 6.208-8.6-.661-4.089-4.511-6.871-8.601-6.208l-3.771.609c-44.315 7.157-87.968-16.5-106.172-57.526-8.999-20.28-10.908-43.283-5.376-64.77 5.531-21.487 18.311-40.708 35.983-54.122l8.939-6.786c6.027-4.574 10.627-10.733 13.303-17.811l17.143-45.344c5.818-15.392 18.882-26.712 34.944-30.281 18.058-4.01 36.539 2.397 48.234 16.728l35.703 43.749c9.633 11.803 20.842 22.22 33.315 30.962l25.344 17.764c19.612 13.746 30.908 36.244 30.216 60.183-.691 23.939-13.268 45.748-33.641 58.337-12.921 7.984-26.623 15.223-40.726 21.514-3.782 1.688-5.481 6.122-3.794 9.905 1.694 3.782 6.126 5.479 9.91 3.794z"/><path d="m261.634 424.388c14.084 0 25.543-11.458 25.543-25.542v-67.304c0-.015 0-.029 0-.044 10.433-12.674 16.145-28.55 16.145-45.031 0-19.559-7.792-37.771-21.94-51.284-14.141-13.505-32.703-20.447-52.305-19.545-36.181 1.664-65.826 31.31-67.49 67.49-.901 19.589 6.04 38.165 19.546 52.305 13.512 14.148 31.725 21.94 51.283 21.94 1.217 0 2.445-.033 3.677-.098v41.571c-.001 14.084 11.457 25.542 25.541 25.542zm-29.219-82.015c-15.421 0-29.781-6.144-40.437-17.3-10.647-11.148-16.119-25.8-15.408-41.256 1.312-28.517 24.678-51.883 53.195-53.195 15.459-.71 30.106 4.761 41.256 15.409 11.156 10.654 17.3 25.015 17.3 40.436 0 13.765-5.055 26.995-14.234 37.255-.026.029-.046.06-.071.089-3.012 3.353-6.423 6.342-10.145 8.881-3.422 2.334-4.304 7-1.97 10.422 1.452 2.129 3.807 3.274 6.203 3.274 1.401 0 2.815-.403 4.072-1.22v53.677c0 5.813-4.729 10.542-10.543 10.542-5.813 0-10.542-4.729-10.542-10.542v-45.157c0-3.307-1.409-6.472-3.865-8.683-2.155-1.939-4.954-3.001-7.828-3.001-.406 0-.814.021-1.222.064-1.922.203-3.862.305-5.761.305z"/></g></g></svg>