<svg id="Capa_1" enable-background="new 0 0 509.787 509.787" height="512" viewBox="0 0 509.787 509.787" width="512" xmlns="http://www.w3.org/2000/svg"><g><g><g><path d="m335.703 65.735 35.642-35.642c1.848-1.848 1.848-4.844 0-6.692l-14.52-14.521c-1.848-1.848-4.844-1.848-6.692 0l-40.036 40.036c-2.813 2.813-4.394 6.628-4.394 10.606v81.298h30.266z" fill="#c68d7a"/></g><path d="m378.886 159.127h-247.985v-34.581c0-4.162 3.374-7.536 7.536-7.536h232.913c4.162 0 7.536 3.374 7.536 7.536z" fill="#efedef"/><g><path d="m103.42 171.424 1.224 20.051 47.543 296.419c1.33 8.293 8.486 14.393 16.885 14.393h171.641c8.399 0 15.555-6.1 16.885-14.393l47.543-296.419 1.224-20.051z" fill="#c68d7a"/></g><path d="m150.784 171.424h-47.364l1.224 20.051 47.543 296.419c1.33 8.293 8.486 14.393 16.885 14.393h39.562c-2.921-2.552-4.985-6.09-5.638-10.164l-40.324-251.407c-2.461-15.341 9.388-29.241 24.925-29.241h214.336l3.208-20 1.224-20.051z" fill="#bc7c63"/><g><g id="XMLID_761_"><path d="m395.384 235.121h-280.98c-6.76 0-11.92 6.05-10.84 12.73l5.29 33 35.914 39.132h223.922l32.243-39.132 5.29-33c1.08-6.681-4.079-12.73-10.839-12.73z" fill="#fef1da"/></g></g><path d="m359.742 366.711h-200.834l-30.274 37.509 4.52 28.16c.86 5.33 5.45 9.25 10.85 9.25h221.78c5.4 0 9.99-3.92 10.85-9.25l4.52-28.16z" fill="#fef1da"/><path d="m400.934 280.85-19.78 123.37-.98-.16h-250.56l-.98.16-19.78-123.37.97-.16h290.14z" fill="#fae2c0"/><g><path d="m409.749 191.475h-309.711c-3.292 0-5.734-3.055-5.007-6.267l5.882-26.005c1.465-6.477 7.22-11.076 13.861-11.076h280.241c6.641 0 12.396 4.599 13.861 11.076l5.882 26.005c.725 3.211-1.716 6.267-5.009 6.267z" fill="#f9f7f8"/><circle cx="255.394" cy="342.377" fill="#f9f7f8" r="74.368"/><path d="m248.773 374.299-30.785-30.785c-7.416-7.416-7.416-19.441 0-26.857 7.416-7.416 19.441-7.416 26.857 0l6.345 6.345c2.045 2.045 5.361 2.045 7.407 0l6.345-6.345c7.416-7.416 19.441-7.416 26.857 0l.113.113c7.372 7.372 7.423 19.31.112 26.744l-30.218 30.731c-3.575 3.635-9.428 3.66-13.033.054z" fill="#fd8087"/></g></g><g><path d="m422.072 183.554-5.882-26.007c-2.255-9.962-10.963-16.92-21.177-16.92h-8.628v-16.081c0-8.291-6.745-15.036-15.035-15.036h-28.147v-40.668l33.445-33.444c4.77-4.77 4.77-12.53 0-17.301l-14.52-14.52c-4.77-4.77-12.531-4.77-17.301 0l-40.034 40.034c-4.25 4.249-6.591 9.899-6.591 15.911v49.987h-101.195c-4.143 0-7.5 3.357-7.5 7.5s3.357 7.5 7.5 7.5l174.379.036v16.081h-232.974l.025-16.117h26.607c4.143 0 7.5-3.357 7.5-7.5s-3.357-7.5-7.5-7.5h-26.607c-8.29 0-15.035 6.745-15.035 15.036v16.081h-8.628c-10.215 0-18.923 6.958-21.177 16.921l-5.882 26.005c-.852 3.767.042 7.657 2.452 10.674 2.029 2.539 4.902 4.152 8.062 4.604l5.199 32.416c-1.124.831-2.166 1.786-3.091 2.872-3.518 4.126-5.042 9.563-4.184 14.917l29.599 184.536c1.125 7.024 6.041 12.531 12.474 14.628l6.557 40.883c1.924 11.997 12.14 20.705 24.291 20.705h171.641c12.151 0 22.367-8.708 24.291-20.705l6.557-40.883c6.433-2.097 11.348-7.604 12.474-14.627l15.957-99.484c.656-4.09-2.128-7.937-6.218-8.593-4.086-.653-7.936 2.128-8.593 6.218l-10.402 64.852h-35.254c-4.143 0-7.5 3.357-7.5 7.5s3.357 7.5 7.5 7.5h32.848l-3.149 19.634c-.272 1.698-1.719 2.931-3.439 2.931h-158.471c-4.143 0-7.5 3.357-7.5 7.5s3.357 7.5 7.5 7.5h148.905l-6.027 37.578c-.751 4.682-4.738 8.08-9.48 8.08h-171.641c-4.742 0-8.729-3.398-9.48-8.08l-6.027-37.578h21.787c4.143 0 7.5-3.357 7.5-7.5s-3.357-7.5-7.5-7.5h-31.352c-1.721 0-3.167-1.232-3.439-2.932l-3.149-19.633h33.848c4.143 0 7.5-3.357 7.5-7.5s-3.357-7.5-7.5-7.5h-36.254l-17.382-108.375h53.637c4.143 0 7.5-3.357 7.5-7.5s-3.357-7.5-7.5-7.5h-56.042l-4.255-26.53c-.222-1.381.399-2.354.789-2.812.289-.339.839-.846 1.673-1.087.079-.019.16-.032.238-.053.229-.049.471-.083.739-.083h280.98c.268 0 .51.035.739.083.078.021.159.035.238.053.834.241 1.384.748 1.673 1.087.39.457 1.011 1.431.789 2.812l-4.255 26.53h-55.042c-4.143 0-7.5 3.357-7.5 7.5s3.357 7.5 7.5 7.5h52.636l-1.854 11.561c-.656 4.09 2.128 7.937 6.218 8.593 4.092.662 7.937-2.127 8.593-6.218l8.516-53.091c.858-5.354-.666-10.791-4.184-14.917-.925-1.085-1.967-2.041-3.091-2.872l5.199-32.416c3.16-.452 6.033-2.065 8.062-4.604 2.409-3.016 3.303-6.907 2.451-10.672zm-108.869-124.032c0-2.004.78-3.887 2.197-5.303l38.078-38.079 10.606 10.606-33.686 33.685c-1.406 1.407-2.196 3.314-2.196 5.304v43.774h-15v-49.987zm-195.164 168.103-4.595-28.65h282.9l-4.595 28.65zm-9.811-66.769c.696-3.079 3.388-5.229 6.546-5.229h280.24c3.157 0 5.85 2.151 6.546 5.229l5.229 23.118h-303.79z"/><path d="m297.103 311.354c-10.328-10.328-27.136-10.326-37.464 0l-4.745 4.746-4.745-4.746c-10.329-10.327-27.134-10.327-37.465 0-10.328 10.328-10.328 27.135 0 37.465l30.785 30.785c3.152 3.151 7.337 4.884 11.791 4.884h.071c4.481-.019 8.68-1.788 11.823-4.983l30.218-30.731c10.156-10.328 10.086-27.063-.156-37.307zm-10.426 26.901-30.217 30.73c-.406.413-.872.501-1.191.502-.309.024-.785-.084-1.192-.491l-30.785-30.784c-4.48-4.481-4.48-11.771-.001-16.251 2.241-2.24 5.184-3.36 8.126-3.36s5.886 1.12 8.125 3.36l6.346 6.346c4.967 4.965 13.047 4.965 18.014 0l6.346-6.346c4.478-4.48 11.769-4.482 16.25 0l.112.112c4.442 4.443 4.472 11.702.067 16.182z"/><path d="m255.394 260.509c-45.143 0-81.868 36.726-81.868 81.868s36.726 81.869 81.868 81.869 81.868-36.727 81.868-81.869-36.726-81.868-81.868-81.868zm0 148.737c-36.871 0-66.868-29.997-66.868-66.869 0-36.871 29.997-66.868 66.868-66.868s66.868 29.997 66.868 66.868c0 36.872-29.997 66.869-66.868 66.869z"/></g></g></svg>