<svg id="Capa_1" enable-background="new 0 0 511.971 511.971" height="512" viewBox="0 0 511.971 511.971" width="512" xmlns="http://www.w3.org/2000/svg"><g><g><g id="XMLID_305_"><g><path d="m358.215 97.055v99.68l-194.23-16.17-4.37-85.7 15.31 5.5c26 9.54 53.28 14.31 80.56 14.31s54.56-4.77 80.56-14.31l15.56-5.5z" fill="#fe646f"/></g></g><g><g id="XMLID_281_"><g><path d="m489.185 181.165c3.06 2.32 3.67 6.69 1.36 9.77l-63.69 84.73c-2.21 2.94-6.31 3.66-9.4 1.66l-42.59-27.66v241.979c0 7.004-5.678 12.681-12.681 12.681h-213.397c-7.004 0-12.681-5.678-12.681-12.681v-241.979l-42.59 27.66c-3.09 2-7.19 1.28-9.4-1.66l-63.69-84.73c-2.31-3.08-1.7-7.45 1.36-9.77l102.5-77.9 29.47-13.73h10.61c2.4 0 4.62 1.24 5.88 3.28l22.68 36.61c13.42 21.66 37.08 34.84 62.56 34.84 12.74 0 25.02-3.3 35.8-9.3s20.05-14.71 26.76-25.54l22.68-36.61c1.26-2.04 3.48-3.28 5.88-3.28h11.61l28.76 13.95z" fill="#fd8087"/></g></g></g><path d="m344.501 89.877c-1.547.496-2.897 1.516-3.775 2.938l-2.319 3.744c2.155-2.091 4.192-4.319 6.094-6.682z" fill="#fd8087"/><g><path d="m126.993 103.742h18.737c4.43 0 8.021-3.591 8.021-8.021v-42.928c0-4.43-3.591-8.021-8.021-8.021h-18.737c-4.43 0-8.021 3.591-8.021 8.021v42.928c0 4.43 3.591 8.021 8.021 8.021z" fill="#e5e1e5"/><path d="m384.978 103.742h-18.737c-4.43 0-8.021-3.591-8.021-8.021v-42.928c0-4.43 3.591-8.021 8.021-8.021h18.737c4.43 0 8.021 3.591 8.021 8.021v42.928c0 4.43-3.591 8.021-8.021 8.021z" fill="#e5e1e5"/><g fill="#fee903"><path d="m396.546 362.828c-7.532 3.627-13.245 9.3-17.233 16.929-2.102 4.021-7.883 4.038-9.793-.078-3.861-8.321-9.842-13.831-17.48-17.185-4.127-1.813-4.33-7.636-.372-9.793 8.064-4.396 13.998-10.246 17.803-17.583 2.049-3.951 7.62-3.946 9.742-.034 4.258 7.85 10.147 13.813 17.566 18.001 3.881 2.19 3.782 7.81-.233 9.743z"/><path d="m473.565 413.356c-6.614-3.734-11.864-9.049-15.659-16.047-1.891-3.487-6.858-3.491-8.684.031-3.392 6.54-8.682 11.755-15.87 15.674-3.528 1.923-3.347 7.114.332 8.73 6.808 2.99 12.14 7.902 15.582 15.32 1.703 3.669 6.856 3.654 8.73.07 3.555-6.801 8.647-11.858 15.362-15.091 3.578-1.725 3.666-6.735.207-8.687z"/><path d="m89.28 373.155c-8.14-4.596-14.602-11.137-19.273-19.75-2.328-4.292-8.44-4.297-10.688.038-4.175 8.05-10.686 14.468-19.533 19.291-4.342 2.367-4.119 8.756.408 10.745 8.379 3.681 14.941 9.725 19.178 18.855 2.095 4.515 8.438 4.497 10.744.086 4.375-8.37 10.643-14.594 18.907-18.573 4.406-2.122 4.514-8.288.257-10.692z"/></g></g><path d="m201.299 483.77c-18.408 0-33.331-14.923-33.331-33.331v-221.329l-.171-7.86c0-7.976-8.842-12.777-15.532-8.433l-27.058 17.573c-3.09 2-7.19 1.28-9.4-1.66l-56.939-75.748-37.083 28.183c-3.06 2.32-3.67 6.69-1.36 9.77l63.69 84.73c2.21 2.94 6.31 3.66 9.4 1.66l42.59-27.66v241.979c0 7.004 5.678 12.681 12.681 12.681h213.397c7.004 0 12.681-5.678 12.681-12.681v-7.874z" fill="#fe646f"/></g><g><path d="m136.103 452.071c4.142 0 7.5-3.358 7.5-7.5v-194.903c0-2.75-1.505-5.279-3.921-6.591-2.416-1.313-5.357-1.196-7.663.301l-42.195 27.399-32.773-43.603c-2.489-3.311-7.191-3.979-10.501-1.489-3.311 2.489-3.978 7.19-1.489 10.501l33.058 43.981c4.559 6.065 13.115 7.581 19.478 3.447l31.007-20.135v181.09c-.001 4.144 3.357 7.502 7.499 7.502z"/><path d="m374.868 405.252c-4.142 0-7.5 3.358-7.5 7.5v84.071h-223.765v-20.29c0-4.142-3.358-7.5-7.5-7.5s-7.5 3.358-7.5 7.5v27.79c0 4.142 3.358 7.5 7.5 7.5h238.765c4.142 0 7.5-3.358 7.5-7.5v-91.571c0-4.142-3.358-7.5-7.5-7.5z"/><path d="m493.724 175.191-48.582-36.921c-3.297-2.506-8.003-1.866-10.509 1.433-2.506 3.298-1.865 8.003 1.433 10.509l48.18 36.616-63.099 83.949-42.195-27.399c-2.305-1.498-5.247-1.614-7.663-.301-2.417 1.312-3.921 3.841-3.921 6.591v52.502c0 4.142 3.358 7.5 7.5 7.5s7.5-3.358 7.5-7.5v-38.69l31.007 20.135c6.363 4.132 14.919 2.619 19.478-3.447l63.688-84.732c4.776-6.353 3.512-15.436-2.817-20.245z"/><path d="m511.119 4.181c-1.916-3.672-6.445-5.096-10.118-3.182-33.305 17.371-68.524 31.194-104.763 41.143-2.831-2.992-6.826-4.871-11.26-4.871h-18.738c-8.463 0-15.355 6.813-15.507 15.241-62.905 11.442-126.591 11.442-189.496 0-.152-8.428-7.043-15.241-15.507-15.241h-18.737c-4.434 0-8.429 1.879-11.26 4.871-36.238-9.949-71.458-23.772-104.764-41.143-3.673-1.915-8.202-.49-10.117 3.182-1.916 3.672-.491 8.203 3.182 10.118 34.158 17.816 70.277 31.992 107.439 42.216v39.206c0 2.398.563 4.662 1.538 6.692l-95.764 72.778c-6.329 4.81-7.592 13.892-2.816 20.246l11.425 15.201c1.474 1.961 3.723 2.994 6.001 2.994 1.568 0 3.15-.49 4.5-1.505 3.311-2.489 3.978-7.19 1.489-10.501l-11.122-14.797 99.51-75.625c.253.012.503.039.759.039h18.737c8.113 0 14.782-6.261 15.454-14.203h2.859l22.508 36.336c14.89 24.037 40.659 38.387 68.934 38.387s54.044-14.35 68.934-38.387l22.508-36.336h3.859c.672 7.942 7.341 14.203 15.454 14.203h18.548l25.824 19.625c1.356 1.031 2.951 1.529 4.533 1.529 2.264 0 4.501-1.021 5.977-2.962 2.506-3.298 1.865-8.003-1.433-10.509l-20.996-15.957c1.149-2.165 1.806-4.63 1.806-7.248v-39.195c37.162-10.225 73.28-24.41 107.439-42.227 3.673-1.915 5.097-6.446 3.181-10.118zm-364.867 91.54c0 .287-.234.521-.521.521h-18.737c-.067 0-.129-.015-.188-.038-.008-.003-.016-.007-.025-.01-.181-.082-.309-.262-.309-.473v-42.928c0-.288.234-.521.521-.521h18.737c.287 0 .521.234.521.521v42.928zm165.415 29.754c-12.135 19.59-33.138 31.286-56.182 31.286s-44.047-11.696-56.182-31.286l-7.315-11.81c20.771 5.656 42.133 8.491 63.497 8.491s42.726-2.833 63.497-8.49zm34.936-43.437c-5.028 0-9.61 2.552-12.257 6.826l-3.292 5.315c-48.838 17.287-102.298 17.287-151.136-.001l-3.292-5.314c-2.647-4.274-7.229-6.826-12.257-6.826h-3.116v-14.295c31.455 5.561 63.094 8.353 94.734 8.353s63.279-2.792 94.734-8.353v14.295zm19.116 13.683v-42.928c0-.288.234-.521.521-.521h18.737c.287 0 .521.234.521.521v42.928c0 .287-.234.521-.521.521h-18.737c-.287 0-.521-.234-.521-.521z"/><path d="m400.467 346.554c-6.304-3.559-11.1-8.48-14.661-15.046-2.298-4.237-6.688-6.855-11.479-6.855-.041 0-.082 0-.122 0-4.807.045-9.171 2.732-11.391 7.012-3.123 6.021-7.943 10.748-14.735 14.45-4.375 2.385-6.961 6.969-6.749 11.963.211 4.968 3.16 9.291 7.694 11.283 6.288 2.762 10.767 7.169 13.693 13.476 2.073 4.467 6.419 7.313 11.341 7.43.106.002.211.003.316.003 4.886 0 9.304-2.675 11.585-7.038 3.281-6.278 7.808-10.742 13.839-13.645 4.357-2.098 7.161-6.399 7.319-11.227.16-4.876-2.388-9.4-6.65-11.806zm-25.947 26.475c-3.852-6.729-9.2-11.984-15.96-15.681 6.655-4.203 11.954-9.458 15.812-15.682 4.091 6.555 9.354 11.956 15.703 16.113-6.352 3.701-11.564 8.812-15.555 15.25zm18.773-16.958c-.002 0-.004.001-.006.002.002 0 .004-.001.006-.002z"/><path d="m477.253 406.825c-5.483-3.095-9.655-7.377-12.753-13.092-2.192-4.041-6.379-6.537-10.949-6.537-.038 0-.078 0-.116 0-4.586.043-8.751 2.606-10.87 6.691-2.706 5.219-6.894 9.321-12.802 12.541-4.175 2.276-6.642 6.649-6.439 11.414.202 4.741 3.016 8.867 7.344 10.768 5.416 2.379 9.274 6.177 11.795 11.61 1.979 4.265 6.128 6.983 10.829 7.094.101.002.201.004.302.004 4.661 0 8.874-2.551 11.048-6.711 2.842-5.436 6.756-9.298 11.969-11.808 4.158-2.002 6.834-6.108 6.985-10.715.151-4.651-2.279-8.965-6.343-11.259zm-23.505 22.76c-3.211-5.202-7.458-9.376-12.688-12.475 5.133-3.433 9.327-7.591 12.53-12.425 3.365 5.098 7.544 9.389 12.485 12.817-4.916 3.076-9.041 7.12-12.327 12.083z"/><path d="m92.967 366.624c-7.04-3.974-12.394-9.468-16.367-16.794-2.414-4.45-7.034-7.174-12.081-7.14-5.003.046-9.546 2.843-11.858 7.3-3.495 6.739-8.881 12.024-16.464 16.158-4.554 2.482-7.246 7.255-7.024 12.455.22 5.17 3.288 9.67 8.006 11.742 7.068 3.104 12.103 8.058 15.391 15.145 2.156 4.647 6.677 7.609 11.799 7.73.11.003.22.004.33.004 5.088 0 9.689-2.786 12.065-7.331 3.675-7.032 8.75-12.033 15.514-15.29 4.535-2.184 7.453-6.661 7.617-11.685.165-5.077-2.49-9.788-6.928-12.294zm-28.135 29.867c-4.399-8.163-10.755-14.406-18.95-18.609 8.083-4.881 14.393-11.14 18.81-18.658 4.727 7.912 10.981 14.328 18.643 19.12-7.693 4.235-13.9 10.323-18.503 18.147z"/></g></g></svg>