<?xml version="1.0" encoding="iso-8859-1"?>
<!-- Generator: Adobe Illustrator 19.0.0, SVG Export Plug-In . SVG Version: 6.00 Build 0)  -->
<svg version="1.1" id="Layer_1" xmlns="http://www.w3.org/2000/svg" xmlns:xlink="http://www.w3.org/1999/xlink" x="0px" y="0px"
	 viewBox="0 0 512 512" style="enable-background:new 0 0 512 512;" xml:space="preserve">
<circle style="fill:#FCCFDB;" cx="227.634" cy="124.481" r="116.311"/>
<path style="fill:#D2F0E7;" d="M375.629,341.806H79.634C35.723,381.93,8.171,439.658,8.171,503.83h438.922
	C447.093,439.658,419.541,381.93,375.629,341.806z"/>
<path style="fill:#8FD9C2;" d="M303.647,380.652h43.574l28.416-38.839c-18.923-17.294-40.882-31.322-64.989-41.182H144.614
	c-24.108,9.86-46.066,23.889-64.989,41.182l28.416,38.839h43.574l0.001,19.28l76.015,103.898l76.015-103.898L303.647,380.652z"/>
<path style="fill:#127C8D;" d="M310.648,300.632c-25.611-10.475-53.636-16.263-83.017-16.263s-57.406,5.788-83.017,16.263
	L227.631,414.1L310.648,300.632z"/>
<path style="fill:#4BBCD6;" d="M289.343,88.739H165.921c-9.627,0-17.43,7.803-17.43,17.43v25.325c0,9.627,7.803,17.43,17.43,17.43
	h45.37c0-9.024,7.316-16.34,16.34-16.34c9.024,0,16.34,7.316,16.34,16.34h45.37c9.627,0,17.43-7.803,17.43-17.43v-25.325
	C306.772,96.544,298.968,88.739,289.343,88.739z"/>
<path style="fill:#9ED9E6;" d="M445.865,349.326v-92.19h-41.35v92.19c-33.397,9.081-57.965,39.592-57.965,75.864l78.64,21.787
	l78.64-21.787C503.83,388.917,479.262,358.407,445.865,349.326z"/>
<path style="fill:#F56E92;" d="M425.19,503.83c43.432,0,78.64-35.208,78.64-78.64H346.55
	C346.55,468.622,381.759,503.83,425.19,503.83z"/>
<g>
	<path style="fill:#3E0412;" d="M227.631,248.965c68.64,0,124.482-55.843,124.482-124.482S296.272,0,227.631,0
		S103.149,55.843,103.149,124.482S158.992,248.965,227.631,248.965z M227.631,16.34c59.629,0,108.142,48.513,108.142,108.142
		s-48.513,108.142-108.142,108.142s-108.142-48.513-108.142-108.142S168.002,16.34,227.631,16.34z"/>
	<path style="fill:#3E0412;" d="M323.214,372.483h-19.567c-4.513,0-8.17,3.658-8.17,8.17v16.61l-59.675,81.564V416.77l77.662-106.15
		c16.162,7.208,31.484,16.518,45.702,27.844c3.531,2.812,8.67,2.228,11.481-1.301c2.812-3.53,2.23-8.669-1.3-11.482
		c-40.643-32.373-89.647-49.483-141.715-49.483c-30.127,0-58.899,5.897-85.24,16.575c-0.583,0.164-1.154,0.395-1.702,0.696
		c-24.238,10.055-46.378,24.174-65.56,41.514c-0.113,0.074-0.229,0.142-0.339,0.222c-0.629,0.46-1.166,0.997-1.622,1.582
		C28.204,378.398,0.001,437.879,0.001,503.83c0,4.512,3.658,8.17,8.17,8.17s8.17-3.658,8.17-8.17
		c0-58.394,23.815-111.329,62.237-149.611l22.869,31.258c1.539,2.104,3.988,3.347,6.594,3.347h35.404v11.109
		c0,1.734,0.552,3.424,1.576,4.824l76.015,103.898c0.034,0.047,0.075,0.087,0.11,0.133c0.124,0.162,0.254,0.319,0.389,0.471
		c0.069,0.077,0.136,0.154,0.207,0.228c0.15,0.157,0.309,0.305,0.472,0.45c0.058,0.051,0.113,0.107,0.172,0.157
		c0.227,0.19,0.463,0.368,0.709,0.533c0.033,0.022,0.068,0.039,0.1,0.061c0.217,0.141,0.439,0.27,0.669,0.39
		c0.071,0.037,0.143,0.069,0.215,0.104c0.198,0.096,0.4,0.185,0.607,0.265c0.083,0.032,0.165,0.062,0.248,0.09
		c0.203,0.071,0.409,0.133,0.619,0.187c0.086,0.023,0.172,0.047,0.259,0.066c0.218,0.049,0.439,0.087,0.662,0.119
		c0.08,0.011,0.158,0.027,0.239,0.036c0.301,0.034,0.606,0.054,0.915,0.054c0.309,0,0.614-0.021,0.915-0.054
		c0.081-0.009,0.159-0.025,0.239-0.036c0.223-0.032,0.444-0.07,0.662-0.119c0.087-0.02,0.173-0.044,0.259-0.066
		c0.21-0.056,0.416-0.117,0.619-0.187c0.083-0.029,0.166-0.059,0.248-0.09c0.207-0.08,0.409-0.169,0.607-0.265
		c0.072-0.035,0.144-0.066,0.215-0.104c0.23-0.12,0.453-0.249,0.669-0.39c0.033-0.022,0.068-0.039,0.1-0.061
		c0.246-0.164,0.483-0.343,0.709-0.533c0.06-0.05,0.114-0.106,0.172-0.157c0.162-0.145,0.321-0.293,0.472-0.45
		c0.071-0.074,0.138-0.151,0.207-0.228c0.136-0.153,0.265-0.309,0.389-0.471c0.035-0.046,0.076-0.086,0.11-0.133l76.016-103.898
		c1.024-1.4,1.576-3.089,1.576-4.825v-11.109h11.402c4.513,0,8.17-3.658,8.17-8.17C331.384,376.14,327.727,372.483,323.214,372.483z
		 M297.783,304.381l-70.151,95.883l-70.067-95.768c21.938-7.733,45.517-11.957,70.067-11.957
		C251.945,292.539,275.536,296.561,297.783,304.381z M159.786,380.652c0-4.512-3.658-8.17-8.17-8.17h-39.428l-21.514-29.406
		c15.34-13.089,32.566-24.026,51.212-32.339l77.576,106.031v62.057l-59.674-81.563L159.786,380.652z"/>
	<path style="fill:#3E0412;" d="M211.291,157.095c4.512,0,8.17-3.658,8.17-8.17c0-4.505,3.665-8.17,8.17-8.17s8.17,3.666,8.17,8.17
		c0,4.512,3.658,8.17,8.17,8.17h45.37c14.116,0,25.6-11.484,25.6-25.6v-25.325c0-14.116-11.484-25.6-25.6-25.6H165.922
		c-14.116,0-25.6,11.484-25.6,25.6v25.325c0,14.116,11.484,25.6,25.6,25.6L211.291,157.095L211.291,157.095z M156.663,131.495
		v-25.325c0-5.106,4.154-9.26,9.26-9.26h123.42c5.106,0,9.26,4.154,9.26,9.26v25.325c0,5.106-4.154,9.26-9.26,9.26h-38.599
		c-3.372-9.51-12.459-16.34-23.111-16.34s-19.739,6.83-23.111,16.34h-38.599C160.816,140.754,156.663,136.602,156.663,131.495z"/>
	<path style="fill:#3E0412;" d="M454.036,343.319v-86.184c0-4.512-3.657-8.17-8.17-8.17h-41.35c-4.513,0-8.17,3.658-8.17,8.17
		v86.184c-34.428,12.117-57.965,44.924-57.965,81.871c0,47.867,38.942,86.81,86.81,86.81c47.867,0,86.809-38.944,86.809-86.81
		C512,388.243,488.465,355.435,454.036,343.319z M425.191,495.66c-36.093,0-65.917-27.28-69.982-62.299h83.259
		c4.513,0,8.17-3.658,8.17-8.17s-3.657-8.17-8.17-8.17h-83.262c3.306-28.248,23.529-52.217,51.452-59.81
		c3.558-0.967,6.026-4.197,6.026-7.884v-84.02h25.01v84.02c0,3.686,2.47,6.916,6.026,7.884c27.923,7.593,48.145,31.562,51.452,59.81
		h-24.023c-4.513,0-8.17,3.658-8.17,8.17s3.657,8.17,8.17,8.17h24.022C491.108,468.38,461.283,495.66,425.191,495.66z"/>
</g>
<g>
</g>
<g>
</g>
<g>
</g>
<g>
</g>
<g>
</g>
<g>
</g>
<g>
</g>
<g>
</g>
<g>
</g>
<g>
</g>
<g>
</g>
<g>
</g>
<g>
</g>
<g>
</g>
<g>
</g>
</svg>
