<svg id="Capa_1" enable-background="new 0 0 512.08 512.08" height="512" viewBox="0 0 512.08 512.08" width="512" xmlns="http://www.w3.org/2000/svg"><g><g><path d="m189.498 7.502c-69.418.399-125.068 57.766-125.068 127.186v366.644c0 1.794 1.454 3.249 3.249 3.249h28.503c1.794 0 3.249-1.454 3.249-3.249v-366.87c0-49.992 39.918-91.472 89.908-91.957 50.479-.49 91.7 40.432 91.7 90.799v.546l7.313 17.815h23.51l4.177-17.815v-.546c-.001-69.614-56.836-126.202-126.541-125.802z" fill="#dcf5f8"/><g><path d="m430.34 233.263-41.403-89.56c-2.777-6.008-8.792-9.854-15.411-9.854h-149.977c-6.618 0-12.634 3.846-15.411 9.854l-41.403 89.56-12.34 27.012s289.181-2.646 289.181 0-13.236-27.012-13.236-27.012z" fill="#a6e7f0"/></g><g><path d="m443.175 260.113c.253.348.401.436.401.163 0-.057-.142-.111-.401-.163z" fill="#a6e7f0"/><path d="m430.34 233.263-9.246-20h-170.412c-10.555 0-17.552-10.944-13.123-20.524l5.386-11.65c6.388-13.817 20.222-22.663 35.444-22.663h117.354l-6.806-14.722c-2.777-6.008-8.792-9.854-15.411-9.854h-149.977c-6.618 0-12.634 3.846-15.411 9.854l-41.403 89.56-12.34 27.012s21.216-.194 52.149-.425l.919-2.011 7.561-16.354v18.304c82.22-.595 219.869-1.333 228.151.324-2.2-3.023-12.835-26.851-12.835-26.851z" fill="#6bd9e7"/></g><path d="m433.534 277.009h-269.992c-7.796 0-14.116-6.32-14.116-14.116v-15.515c0-7.796 6.32-14.116 14.116-14.116h269.992c7.796 0 14.116 6.32 14.116 14.116v15.515c-.001 7.796-6.321 14.116-14.116 14.116z" fill="#d4f2f6"/></g><g><path d="m435.166 225.832-17.839-38.588c-1.737-3.758-6.19-5.396-9.955-3.66-3.76 1.738-5.398 6.195-3.66 9.955l14.897 32.226h-194.151c-4.143 0-7.5 3.357-7.5 7.5s3.357 7.5 7.5 7.5h209.075c3.648 0 6.616 2.968 6.616 6.615v15.515c0 3.648-2.968 6.616-6.616 6.616h-269.991c-3.647 0-6.615-2.968-6.615-6.616v-15.515c0-3.647 2.968-6.615 6.615-6.615h28.954c4.143 0 7.5-3.357 7.5-7.5s-3.357-7.5-7.5-7.5h-14.03l36.48-78.913c1.545-3.342 4.922-5.501 8.604-5.501h149.977c3.682 0 7.059 2.159 8.604 5.501l8.167 17.667c1.737 3.758 6.191 5.398 9.955 3.66 3.76-1.738 5.398-6.195 3.66-9.955l-8.167-17.667c-3.989-8.63-12.711-14.206-22.219-14.206h-50.181c-3.632-70.285-61.942-126.351-133.112-126.351-73.504 0-133.304 59.8-133.304 133.304v244.915c0 4.143 3.357 7.5 7.5 7.5s7.5-3.357 7.5-7.5v-244.915c0-65.233 53.071-118.304 118.304-118.304 62.897 0 114.48 49.342 118.093 111.35h-20.038c-3.581-50.973-46.188-91.35-98.055-91.35-54.205 0-98.304 44.099-98.304 98.304v371.276c0 4.143 3.357 7.5 7.5 7.5s7.5-3.357 7.5-7.5v-371.276c0-45.934 37.37-83.304 83.304-83.304 43.59 0 79.443 33.66 82.991 76.35h-49.676c-9.508 0-18.229 5.576-22.219 14.206l-39.422 85.276c-11.158.838-19.983 10.178-19.983 21.547v15.515c0 11.919 9.696 21.616 21.615 21.616h269.992c11.919 0 21.616-9.697 21.616-21.616v-15.515c.002-11.369-8.823-20.709-19.982-21.547z"/><path d="m64.43 402.682c-4.143 0-7.5 3.357-7.5 7.5v94.398c0 4.143 3.357 7.5 7.5 7.5s7.5-3.357 7.5-7.5v-94.398c0-4.143-3.357-7.5-7.5-7.5z"/><path d="m190.234 315.366c-4.143 0-7.5 3.357-7.5 7.5v36.887c0 4.143 3.357 7.5 7.5 7.5s7.5-3.357 7.5-7.5v-36.887c0-4.142-3.358-7.5-7.5-7.5z"/><path d="m190.234 392.923c-4.143 0-7.5 3.357-7.5 7.5v104.157c0 4.143 3.357 7.5 7.5 7.5s7.5-3.357 7.5-7.5v-104.157c0-4.143-3.358-7.5-7.5-7.5z"/><path d="m249.862 352.253c-4.143 0-7.5 3.357-7.5 7.5v85.414c0 4.143 3.357 7.5 7.5 7.5s7.5-3.357 7.5-7.5v-85.414c0-4.143-3.358-7.5-7.5-7.5z"/><path d="m406.841 315.366c-4.143 0-7.5 3.357-7.5 7.5v36.887c0 4.143 3.357 7.5 7.5 7.5s7.5-3.357 7.5-7.5v-36.887c0-4.142-3.357-7.5-7.5-7.5z"/><path d="m406.841 392.923c-4.143 0-7.5 3.357-7.5 7.5v104.157c0 4.143 3.357 7.5 7.5 7.5s7.5-3.357 7.5-7.5v-104.157c0-4.143-3.357-7.5-7.5-7.5z"/><path d="m347.213 352.253c-4.143 0-7.5 3.357-7.5 7.5v85.414c0 4.143 3.357 7.5 7.5 7.5s7.5-3.357 7.5-7.5v-85.414c0-4.143-3.357-7.5-7.5-7.5z"/><path d="m298.538 310.638c-4.143 0-7.5 3.357-7.5 7.5v84.322c0 4.143 3.357 7.5 7.5 7.5s7.5-3.357 7.5-7.5v-84.322c0-4.143-3.358-7.5-7.5-7.5z"/><path d="m298.538 432.647c-4.143 0-7.5 3.357-7.5 7.5v64.433c0 4.143 3.357 7.5 7.5 7.5s7.5-3.357 7.5-7.5v-64.433c0-4.142-3.358-7.5-7.5-7.5z"/></g></g></svg>