<svg id="Capa_1" enable-background="new 0 0 512.918 512.918" height="512" viewBox="0 0 512.918 512.918" width="512" xmlns="http://www.w3.org/2000/svg"><g><g><g><path d="m471.04 95.491c8.17 0 14.793 6.623 14.793 14.793v317.032h-457.748v-317.032c0-8.17 6.623-14.793 14.793-14.793z" fill="#b5adb6"/><path d="m419.19 335.477 12.818-38.374-62.609-73.42v-128.192h-114.01v128.184l-.526.617-44.727 55.19 51.594 55.995z" fill="#a79ba7"/><g><g id="XMLID_333_"><g><path d="m455.829 129.483v249.841c0 2.203-1.786 3.99-3.99 3.99h-189.83-199.93c-2.203 0-3.99-1.786-3.99-3.99v-249.841c0-2.203 1.786-3.99 3.99-3.99h389.761c2.203 0 3.989 1.786 3.989 3.99z" fill="#f9f7f8"/></g></g></g><g id="XMLID_335_"><g><path d="m235.599 217.335v-35.367l9.532-32.352c1.104-3.747-1.705-7.503-5.612-7.503h-125.383c-3.846 0-6.645 3.647-5.651 7.362l9.084 33.957v33.903c-29.079 19.565-46.81 52.461-46.81 87.828 0 5.931.492 11.893 1.461 17.722l2.216 10.113c5.257 19.513 15.94 36.906 30.601 50.315h142.989c15.911-14.492 27.092-33.588 31.848-55.034l.405-.309 1.13-8.139c0-.001 0-.002 0-.003l4.186-30.102-4.159 1.145c-4.074-29.788-20.715-56.633-45.837-73.536z" fill="#efedef"/><path d="m425.094 289-55.695-65.316v-98.19h-114.01v98.182l-.526.616-48.26 59.546c-13.551 16.715-21.015 37.777-21.015 59.306 0 15.073 5.701 29.291 16.045 40.17h60.375 159.133c5.742-5.732 10.542-12.557 14.114-20.296 11.463-24.838 7.569-53.193-10.161-74.018z" fill="#efedef"/><path d="m349.399 231.053v-148.03l7.36-15.18c1.08-2.24-.55-4.84-3.04-4.84h-82.66c-2.49 0-4.12 2.6-3.03 4.85l7.36 15.17v148.03l-5.15 6.03-33.68 41.56 33.939 36.834h134.287l4.81-12.156z" fill="#f9f7f8"/><path d="m263.246 245.712-26.687 32.931 33.939 36.834h11.501c.273-3.079.42-6.194.42-9.343 0-22.476-7.101-43.322-19.173-60.422z" fill="#efedef"/><path d="m409.975 303.771-.38-.45-23.5 3.63c-21.51 2.86-43.39.4-63.72-7.16-4.99-1.85-10.07-3.4-15.2-4.63-5.14-1.24-70.48-14.68-70.48-14.68l-14.42 17.79c-10.71 13.21-16.55 29.7-16.55 46.71 0 10.49 4.21 20.01 11.05 26.94 6.673 6.771 15.849 11.067 26.05 11.392h19.184 124.027c33.033-9.212 48.139-51.161 23.939-79.542z" fill="#fef056"/><path d="m282.417 307.981c0-6.096-.528-12.071-1.53-17.886l-44.33-9.605-14.42 17.79c-10.71 13.21-16.55 29.7-16.55 46.71 0 10.49 4.21 20.01 11.05 26.94 6.83 6.93 16.28 11.28 26.77 11.42l7.078-.036c19.761-19.106 31.932-45.741 31.932-75.333z" fill="#fee903"/><path d="m218.299 230.163c-1.67-.93-2.7-2.7-2.7-4.62v-46.46l4.161-14.122c.419-1.422-.647-2.848-2.13-2.848h-82.169c-1.459 0-2.522 1.384-2.145 2.794l4.253 15.896v44.74c0 1.92-1.03 3.69-2.7 4.62-26.31 14.67-44.11 42.74-44.11 75 0 4.92.41 9.75 1.19 14.44 0 0 29.665 15.569 30.466 15.302s115.852 0 115.852 0l23.332-17.832c.54-3.89.82-7.87.82-11.91 0-32.25-17.81-60.33-44.12-75z" fill="#f9f7f8"/><path d="m261.599 317.073c-4.11 29.56-23.27 54.3-49.5 66.24h-71.2c-25.51-11.57-44.18-35.21-48.95-63.71l24.8-6.63c21.62-5.79 44.53-4.38 65.28 4.02 12.36 5 25.48 7.52 38.63 7.52 9.21 0 18.43-1.24 27.42-3.72z" fill="#fe646f"/></g></g></g><path d="m478.095 449.915h-443.272c-15.09 0-27.322-12.233-27.322-27.322v-2.942c0-3.499 2.836-6.335 6.335-6.335h485.248c3.499 0 6.335 2.836 6.335 6.335v2.942c-.001 15.089-12.234 27.322-27.324 27.322z" fill="#918291"/></g><g><path d="m505.418 405.816h-12.085v-295.532c0-12.292-10-22.293-22.293-22.293h-91.641c-4.142 0-7.5 3.357-7.5 7.5s3.358 7.5 7.5 7.5h91.641c4.021 0 7.293 3.271 7.293 7.293v295.532h-442.748v-45.447c0-4.143-3.358-7.5-7.5-7.5s-7.5 3.357-7.5 7.5v45.447h-13.085c-4.142 0-7.5 3.357-7.5 7.5v9.276c0 19.201 15.622 34.822 34.823 34.822h443.272c19.201 0 34.823-15.621 34.823-34.822v-9.276c0-4.143-3.358-7.5-7.5-7.5zm-7.5 16.776c0 10.93-8.893 19.822-19.823 19.822h-443.272c-10.93 0-19.823-8.893-19.823-19.822v-1.776h482.918z"/><path d="m28.085 335.907c4.142 0 7.5-3.357 7.5-7.5v-218.123c0-4.021 3.271-7.293 7.293-7.293h202.507c4.142 0 7.5-3.357 7.5-7.5s-3.358-7.5-7.5-7.5h-202.507c-12.292 0-22.293 10.001-22.293 22.293v218.123c0 4.142 3.358 7.5 7.5 7.5z"/><path d="m245.385 132.991c4.142 0 7.5-3.357 7.5-7.5s-3.358-7.5-7.5-7.5h-187.3c-4.142 0-7.5 3.357-7.5 7.5v257.825c0 4.143 3.358 7.5 7.5 7.5h397.748c4.142 0 7.5-3.357 7.5-7.5v-257.825c0-4.143-3.358-7.5-7.5-7.5h-76.434c-4.142 0-7.5 3.357-7.5 7.5s3.358 7.5 7.5 7.5h68.934v242.825h-37.464c5.358-4.97 9.81-11.043 13.036-18.032 9.403-20.374 6.2-43.639-8.36-60.715l-58.646-68.78v-21.063c0-4.143-3.358-7.5-7.5-7.5s-7.5 3.357-7.5 7.5v23.826c0 1.783.636 3.509 1.793 4.866l51.5 60.4-10.224 1.36c-20.214 2.69-41.003.354-60.116-6.755-10.459-3.891-21.395-6.525-32.502-7.83-4.12-.474-7.84 2.461-8.324 6.574-.483 4.114 2.46 7.841 6.574 8.324 9.919 1.165 19.684 3.517 29.023 6.99 15.639 5.816 32.277 8.779 48.937 8.779 6.141 0 12.288-.403 18.386-1.214l19.595-2.607c8.607 12.192 10.107 27.769 3.743 41.558-6.922 14.999-21.485 24.317-38.005 24.317h-134.766c20.209-17.477 32.401-43.167 32.401-70.652 0-33.374-17.905-64.251-46.816-80.9v-44.097l4.694-15.932c.668-2.269.228-4.719-1.188-6.612s-3.642-3.008-6.006-3.008h-31.322c-4.142 0-7.5 3.357-7.5 7.5s3.358 7.5 7.5 7.5h21.293l-2.166 7.35c-.203.688-.306 1.402-.306 2.12v46.462c0 4.636 2.511 8.916 6.554 11.171 24.834 13.843 40.262 40.07 40.262 68.446 0 2.025-.085 4.037-.24 6.035l-8.592 2.369c-20.131 5.553-41.881 4.298-61.241-3.532-22.115-8.944-46.988-10.478-70.031-4.31l-16.39 4.384c-.103-1.641-.165-3.289-.165-4.948 0-28.376 15.428-54.604 40.262-68.445 4.043-2.253 6.554-6.533 6.554-11.171v-44.744c0-.654-.085-1.307-.255-1.938l-2.474-9.247h14.971c4.142 0 7.5-3.357 7.5-7.5s-3.358-7.5-7.5-7.5h-24.742c-2.331 0-4.53 1.084-5.949 2.934-1.419 1.849-1.898 4.253-1.296 6.505l4.745 17.733v42.476c-28.912 16.65-46.815 47.526-46.816 80.9 0 27.527 12.124 53.213 32.233 70.653h-49.902v-242.825zm-144.577 192.008 17.879-4.783c19.918-5.329 41.415-4.006 60.53 3.726 13.201 5.338 27.357 8.034 41.529 8.034 9.875 0 19.759-1.311 29.323-3.947l1.537-.424c-6.258 20.827-21.037 38.547-41.169 48.211h-67.877c-20.901-10.004-36.009-28.81-41.752-50.817z"/><path d="m267.885 84.746v143.543l-3.348 3.927c-2.688 3.151-2.311 7.886.841 10.573 1.412 1.204 3.142 1.793 4.863 1.793 2.12 0 4.227-.895 5.71-2.634l5.141-6.029c1.157-1.357 1.793-3.082 1.793-4.866v-148.03c0-1.134-.257-2.252-.751-3.272l-4.484-9.247h69.485l-4.484 9.247c-.495 1.021-.751 2.139-.751 3.272v92.241c0 4.143 3.358 7.5 7.5 7.5s7.5-3.357 7.5-7.5v-90.518l6.607-13.626c1.644-3.392 1.431-7.322-.57-10.516s-5.446-5.101-9.214-5.101h-82.659c-3.769 0-7.213 1.906-9.214 5.101-2.001 3.193-2.214 7.124-.57 10.517z"/></g></g></svg>